<svg id="Capa_1" data-name="Capa 1" xmlns="http://www.w3.org/2000/svg" viewBox="0 0 1800 1800"><defs><style>.cls-1{fill:#67b32e;}.cls-2,.cls-3{fill:#53266d;opacity:0.97;}.cls-3{font-size:146.52px;font-family:Teko-SemiBold, Teko;font-weight:600;}</style></defs><title>Mesa de trabajo 1logo</title><path class="cls-1" d="M592,981.2h132.3q115,0,115,110v384.53q0,108.82-115,108.81H592q-113.78,0-113.75-108.81V1091.24Q478.26,981.19,592,981.2Zm137.24,478.49V1106.07q0-22.24-7.41-29.67T692.17,1069h-68q-22.26,0-29.06,7.43t-6.8,29.67v353.62q0,22.26,6.8,29.69t29.06,7.41h68q22.25,0,29.67-7.41T729.25,1459.69Z"/><path class="cls-1" d="M1049.49,981.2H1181.8q115,0,115,110v384.53q0,108.82-115,108.81H1049.49q-113.78,0-113.75-108.81V1091.24Q935.74,981.19,1049.49,981.2Zm137.25,478.49V1106.07q0-22.24-7.42-29.67t-29.67-7.43h-68q-22.26,0-29.06,7.43t-6.8,29.67v353.62q0,22.26,6.8,29.69t29.06,7.41h68q22.24,0,29.67-7.41T1186.74,1459.69Z"/><rect class="cls-1" x="616.3" y="1127.35" width="87.07" height="315.24" rx="7.62"/><rect class="cls-1" x="1067.4" y="1190.4" width="87.07" height="173.38" rx="7.62"/><path class="cls-1" d="M528.05,70.14H711.44V707.73H528.05Z"/><path class="cls-1" d="M1102.33,71.76H1270V709.34l-157.2-1.61L962.94,373.05V709.34H795.27V71.76h157.2L1102.33,412.4Z"/><polyline class="cls-2" points="192.01 1715.67 329.88 1715.67 502.51 1308.07 694.08 855.79 430.62 287.47 329.88 70.14 188.1 70.14"/><polyline class="cls-2" points="1623.41 70.38 1481.62 70.38 1360.12 332.5 1117.43 856.03 1327.96 1353.1 1481.62 1715.9 1619.5 1715.9"/><path class="cls-1" d="M417.65,1646H568.53v71.06H330.05V1107.72h87.6Z"/><path class="cls-1" d="M1405,1714.9V1141.62h77.12V1714.9Zm265.64-418.17-96,199.65,96,218.52h-82.26l-92.55-218.52,92.55-199.65Z"/><text class="cls-3" transform="translate(699.28 1714.9)">Your Style</text></svg>